<?xml version="1.0" standalone="no"?>
<!DOCTYPE svg PUBLIC "-//W3C//DTD SVG 20010904//EN"
 "http://www.w3.org/TR/2001/REC-SVG-20010904/DTD/svg10.dtd">
<svg version="1.0" xmlns="http://www.w3.org/2000/svg"
 width="1280.000000pt" height="238.000000pt" viewBox="0 0 1280.000000 238.000000"
 preserveAspectRatio="xMidYMid meet">
<metadata>
Created by potrace 1.16, written by Peter Selinger 2001-2019
</metadata>
<g transform="translate(0.000000,238.000000) scale(0.100000,-0.100000)"
fill="#000000" stroke="none">
<path d="M3110 2113 l0 -218 181 -105 c99 -58 184 -107 190 -108 6 -3 8 77 7
213 l-3 217 -160 94 c-88 52 -172 102 -187 110 l-28 15 0 -218z"/>
<path d="M4240 2221 l-185 -109 -3 -216 c-1 -119 0 -216 3 -216 2 0 71 39 152
87 82 48 165 96 185 107 l38 21 0 218 c0 119 -1 217 -2 217 -2 0 -86 -49 -188
-109z"/>
<path d="M3540 1885 l0 -225 230 0 230 0 0 225 0 225 -230 0 -230 0 0 -225z"/>
<path d="M5892 2085 c-293 -66 -426 -361 -287 -635 36 -72 116 -150 305 -297
263 -205 350 -312 350 -430 -1 -102 -50 -181 -145 -231 -43 -23 -62 -27 -140
-27 -80 0 -95 3 -135 27 -55 32 -116 95 -163 168 -66 101 -50 97 -154 32 l-92
-57 31 -55 c130 -230 299 -340 523 -340 151 0 267 44 365 140 168 164 197 389
77 600 -46 80 -182 212 -347 335 -179 133 -245 196 -276 260 -83 175 70 340
262 279 61 -19 157 -98 205 -169 13 -19 28 -35 32 -35 10 0 177 129 177 137 0
13 -106 136 -152 178 -120 107 -288 154 -436 120z"/>
<path d="M11925 2094 c-281 -38 -441 -110 -605 -273 -111 -111 -180 -226 -227
-378 -24 -81 -27 -102 -27 -268 0 -157 2 -190 22 -258 47 -164 111 -281 217
-395 176 -191 406 -282 710 -282 298 0 524 88 711 275 41 41 74 80 74 88 0 11
-151 137 -164 137 -1 0 -37 -33 -78 -72 -187 -181 -417 -249 -679 -203 -158
28 -273 88 -390 205 -209 209 -258 540 -121 820 52 105 185 238 297 297 122
63 208 83 356 83 139 0 226 -18 337 -71 75 -36 196 -132 237 -188 17 -22 33
-41 36 -41 12 0 164 122 167 135 5 19 -92 130 -160 183 -120 94 -275 164 -423
191 -67 12 -244 21 -290 15z"/>
<path d="M246 2028 c-2 -13 -14 -93 -26 -178 -21 -151 -39 -277 -81 -565 -30
-207 -56 -392 -80 -555 -11 -80 -29 -202 -40 -273 -10 -70 -19 -139 -19 -152
l0 -26 107 3 108 3 12 95 c13 94 37 271 73 530 10 74 28 207 40 295 12 88 25
181 28 208 l7 47 294 -590 293 -590 40 0 39 0 288 582 c203 411 290 577 294
563 3 -11 8 -45 12 -75 3 -30 15 -118 26 -195 25 -182 54 -389 79 -572 12 -82
26 -183 32 -226 l10 -77 109 0 c124 0 119 -5 99 98 -5 28 -14 86 -19 129 -6
43 -40 283 -76 533 -102 703 -145 1001 -145 1006 0 2 -16 4 -36 4 l-35 0 -221
-447 c-121 -247 -273 -556 -338 -688 l-118 -240 -342 688 -342 687 -34 0 c-27
0 -34 -4 -38 -22z"/>
<path d="M8141 2028 c-5 -13 -37 -81 -71 -153 -34 -71 -81 -170 -105 -220 -64
-135 -132 -279 -182 -385 -25 -52 -65 -135 -88 -185 -23 -49 -65 -138 -94
-197 -169 -355 -281 -595 -281 -602 0 -3 55 -6 123 -6 l123 0 119 252 c66 139
126 268 134 286 l15 32 354 0 353 0 98 -202 c53 -112 115 -240 136 -285 l40
-83 122 0 122 0 -34 75 c-19 41 -50 108 -69 148 -191 410 -407 871 -571 1222
l-151 320 -42 3 c-36 3 -43 0 -51 -20z m177 -697 c67 -142 122 -262 122 -265
0 -3 -112 -6 -250 -6 -137 0 -250 2 -250 4 0 6 63 142 154 330 47 98 86 182
86 187 0 34 32 -23 138 -250z"/>
<path d="M9910 1165 l0 -885 110 0 110 0 0 885 0 885 -110 0 -110 0 0 -885z"/>
<path d="M2975 1657 c-61 -104 -111 -193 -113 -197 -2 -5 84 -58 190 -119 152
-88 195 -108 204 -98 7 6 60 94 117 194 l105 182 -77 45 c-42 24 -130 75 -196
113 l-121 70 -109 -190z"/>
<path d="M4390 1809 c-30 -18 -117 -67 -192 -111 l-136 -79 110 -192 c61 -106
112 -194 114 -196 3 -4 371 204 387 219 8 7 -204 382 -219 387 -5 2 -34 -11
-64 -28z"/>
<path d="M3512 1568 c-102 -171 -212 -367 -212 -378 0 -8 51 -103 114 -210
l114 -195 242 0 242 0 117 202 118 201 -117 204 -118 203 -240 3 -240 2 -20
-32z"/>
<path d="M2638 1300 c-103 -58 -188 -107 -188 -110 1 -10 356 -205 375 -205
19 0 374 195 375 205 0 3 -85 52 -188 110 l-187 105 -187 -105z"/>
<path d="M4528 1300 c-103 -58 -188 -107 -188 -110 1 -11 356 -205 375 -205
20 0 375 195 374 205 0 3 -84 52 -187 110 l-187 105 -187 -105z"/>
<path d="M3055 1040 c-105 -60 -190 -113 -190 -119 0 -5 49 -94 109 -198 l110
-189 197 113 197 114 -105 182 c-58 100 -110 188 -117 194 -9 10 -53 -12 -201
-97z"/>
<path d="M4174 955 l-112 -195 186 -106 c101 -59 191 -107 199 -108 9 -1 58
73 124 187 60 104 109 190 109 192 0 4 -385 225 -391 225 -2 0 -54 -88 -115
-195z"/>
<path d="M3540 495 l0 -225 230 0 230 0 0 225 0 225 -230 0 -230 0 0 -225z"/>
<path d="M3293 592 l-183 -107 0 -218 0 -217 38 20 c20 11 105 60 187 109
l150 89 3 216 c1 119 -1 216 -5 215 -5 0 -90 -49 -190 -107z"/>
<path d="M4050 485 c0 -212 0 -215 23 -229 40 -25 311 -183 335 -195 l22 -12
-2 218 -3 217 -183 108 c-101 59 -186 108 -188 108 -2 0 -4 -97 -4 -215z"/>
</g>
</svg>
